<mxfile host="app.diagrams.net" agent="Mozilla/5.0 (Windows NT 10.0; Win64; x64) AppleWebKit/537.36 (KHTML, like Gecko) Chrome/140.0.0.0 Safari/537.36 Edg/140.0.0.0" version="28.2.5">
  <diagram name="Page-1" id="E6FCqhGUyxpqd-yxbUOb">
    <mxGraphModel dx="1034" dy="1670" grid="1" gridSize="10" guides="1" tooltips="1" connect="1" arrows="1" fold="1" page="1" pageScale="1" pageWidth="850" pageHeight="1100" math="0" shadow="0">
      <root>
        <mxCell id="0" />
        <mxCell id="1" parent="0" />
        <mxCell id="WWOoY5GLKsMl3ht9ghT3-1" value="Postition" style="swimlane;fontStyle=1;align=center;verticalAlign=top;childLayout=stackLayout;horizontal=1;startSize=26;horizontalStack=0;resizeParent=1;resizeParentMax=0;resizeLast=0;collapsible=1;marginBottom=0;whiteSpace=wrap;html=1;" vertex="1" parent="1">
          <mxGeometry x="40" y="40" width="160" height="280" as="geometry" />
        </mxCell>
        <mxCell id="WWOoY5GLKsMl3ht9ghT3-2" value="&lt;ul&gt;&lt;li&gt;QB&lt;/li&gt;&lt;li&gt;RB&lt;/li&gt;&lt;li&gt;WR&lt;/li&gt;&lt;li&gt;TE&lt;/li&gt;&lt;li&gt;D/ST&lt;/li&gt;&lt;li&gt;K&lt;/li&gt;&lt;/ul&gt;" style="text;strokeColor=none;fillColor=none;align=left;verticalAlign=top;spacingLeft=4;spacingRight=4;overflow=hidden;rotatable=0;points=[[0,0.5],[1,0.5]];portConstraint=eastwest;whiteSpace=wrap;html=1;" vertex="1" parent="WWOoY5GLKsMl3ht9ghT3-1">
          <mxGeometry y="26" width="160" height="124" as="geometry" />
        </mxCell>
        <mxCell id="WWOoY5GLKsMl3ht9ghT3-3" value="" style="line;strokeWidth=1;fillColor=none;align=left;verticalAlign=middle;spacingTop=-1;spacingLeft=3;spacingRight=3;rotatable=0;labelPosition=right;points=[];portConstraint=eastwest;strokeColor=inherit;" vertex="1" parent="WWOoY5GLKsMl3ht9ghT3-1">
          <mxGeometry y="150" width="160" height="8" as="geometry" />
        </mxCell>
        <mxCell id="WWOoY5GLKsMl3ht9ghT3-4" value="&lt;ul&gt;&lt;li&gt;Add_position()&lt;/li&gt;&lt;li&gt;Edit_position()&lt;/li&gt;&lt;li&gt;Flex_eligible()&lt;/li&gt;&lt;li&gt;Team_slot()&lt;/li&gt;&lt;li&gt;Ranking()&lt;/li&gt;&lt;/ul&gt;" style="text;strokeColor=none;fillColor=none;align=left;verticalAlign=top;spacingLeft=4;spacingRight=4;overflow=hidden;rotatable=0;points=[[0,0.5],[1,0.5]];portConstraint=eastwest;whiteSpace=wrap;html=1;" vertex="1" parent="WWOoY5GLKsMl3ht9ghT3-1">
          <mxGeometry y="158" width="160" height="122" as="geometry" />
        </mxCell>
        <mxCell id="WWOoY5GLKsMl3ht9ghT3-6" value="Team (User)" style="swimlane;fontStyle=1;align=center;verticalAlign=top;childLayout=stackLayout;horizontal=1;startSize=26;horizontalStack=0;resizeParent=1;resizeParentMax=0;resizeLast=0;collapsible=1;marginBottom=0;whiteSpace=wrap;html=1;" vertex="1" parent="1">
          <mxGeometry x="320" y="40" width="160" height="280" as="geometry" />
        </mxCell>
        <mxCell id="WWOoY5GLKsMl3ht9ghT3-7" value="&lt;ul&gt;&lt;li&gt;Team Name&lt;/li&gt;&lt;li&gt;Lineup&lt;/li&gt;&lt;li&gt;Bench&lt;/li&gt;&lt;li&gt;Projected Points&lt;/li&gt;&lt;li&gt;Actual Points&lt;/li&gt;&lt;li&gt;Matchup&lt;/li&gt;&lt;/ul&gt;" style="text;strokeColor=none;fillColor=none;align=left;verticalAlign=top;spacingLeft=4;spacingRight=4;overflow=hidden;rotatable=0;points=[[0,0.5],[1,0.5]];portConstraint=eastwest;whiteSpace=wrap;html=1;" vertex="1" parent="WWOoY5GLKsMl3ht9ghT3-6">
          <mxGeometry y="26" width="160" height="114" as="geometry" />
        </mxCell>
        <mxCell id="WWOoY5GLKsMl3ht9ghT3-8" value="" style="line;strokeWidth=1;fillColor=none;align=left;verticalAlign=middle;spacingTop=-1;spacingLeft=3;spacingRight=3;rotatable=0;labelPosition=right;points=[];portConstraint=eastwest;strokeColor=inherit;" vertex="1" parent="WWOoY5GLKsMl3ht9ghT3-6">
          <mxGeometry y="140" width="160" height="8" as="geometry" />
        </mxCell>
        <mxCell id="WWOoY5GLKsMl3ht9ghT3-9" value="&lt;ul&gt;&lt;li&gt;Add_player()&lt;/li&gt;&lt;li&gt;Move_player()&lt;/li&gt;&lt;li&gt;Trade_player()&lt;/li&gt;&lt;/ul&gt;" style="text;strokeColor=none;fillColor=none;align=left;verticalAlign=top;spacingLeft=4;spacingRight=4;overflow=hidden;rotatable=0;points=[[0,0.5],[1,0.5]];portConstraint=eastwest;whiteSpace=wrap;html=1;" vertex="1" parent="WWOoY5GLKsMl3ht9ghT3-6">
          <mxGeometry y="148" width="160" height="132" as="geometry" />
        </mxCell>
        <mxCell id="WWOoY5GLKsMl3ht9ghT3-10" value="" style="endArrow=open;endFill=1;endSize=12;html=1;rounded=0;" edge="1" parent="1">
          <mxGeometry width="160" relative="1" as="geometry">
            <mxPoint x="210" y="120" as="sourcePoint" />
            <mxPoint x="310" y="120" as="targetPoint" />
          </mxGeometry>
        </mxCell>
        <mxCell id="WWOoY5GLKsMl3ht9ghT3-12" value="Free Agent" style="swimlane;fontStyle=1;align=center;verticalAlign=top;childLayout=stackLayout;horizontal=1;startSize=26;horizontalStack=0;resizeParent=1;resizeParentMax=0;resizeLast=0;collapsible=1;marginBottom=0;whiteSpace=wrap;html=1;" vertex="1" parent="1">
          <mxGeometry x="600" y="40" width="160" height="278" as="geometry" />
        </mxCell>
        <mxCell id="WWOoY5GLKsMl3ht9ghT3-13" value="&lt;ul&gt;&lt;li&gt;Name&lt;/li&gt;&lt;li&gt;Player ID&lt;/li&gt;&lt;li&gt;Projected Points&lt;/li&gt;&lt;li&gt;Actual Points&lt;/li&gt;&lt;li&gt;Team (NFL)&lt;/li&gt;&lt;li&gt;Waivers&lt;/li&gt;&lt;/ul&gt;" style="text;strokeColor=none;fillColor=none;align=left;verticalAlign=top;spacingLeft=4;spacingRight=4;overflow=hidden;rotatable=0;points=[[0,0.5],[1,0.5]];portConstraint=eastwest;whiteSpace=wrap;html=1;" vertex="1" parent="WWOoY5GLKsMl3ht9ghT3-12">
          <mxGeometry y="26" width="160" height="124" as="geometry" />
        </mxCell>
        <mxCell id="WWOoY5GLKsMl3ht9ghT3-14" value="" style="line;strokeWidth=1;fillColor=none;align=left;verticalAlign=middle;spacingTop=-1;spacingLeft=3;spacingRight=3;rotatable=0;labelPosition=right;points=[];portConstraint=eastwest;strokeColor=inherit;" vertex="1" parent="WWOoY5GLKsMl3ht9ghT3-12">
          <mxGeometry y="150" width="160" height="8" as="geometry" />
        </mxCell>
        <mxCell id="WWOoY5GLKsMl3ht9ghT3-15" value="&lt;ul&gt;&lt;li&gt;Add_player()&lt;/li&gt;&lt;li&gt;Waivers_add()&lt;/li&gt;&lt;li&gt;&lt;br&gt;&lt;/li&gt;&lt;/ul&gt;" style="text;strokeColor=none;fillColor=none;align=left;verticalAlign=top;spacingLeft=4;spacingRight=4;overflow=hidden;rotatable=0;points=[[0,0.5],[1,0.5]];portConstraint=eastwest;whiteSpace=wrap;html=1;" vertex="1" parent="WWOoY5GLKsMl3ht9ghT3-12">
          <mxGeometry y="158" width="160" height="120" as="geometry" />
        </mxCell>
        <mxCell id="WWOoY5GLKsMl3ht9ghT3-17" value="Player" style="swimlane;fontStyle=1;align=center;verticalAlign=top;childLayout=stackLayout;horizontal=1;startSize=26;horizontalStack=0;resizeParent=1;resizeParentMax=0;resizeLast=0;collapsible=1;marginBottom=0;whiteSpace=wrap;html=1;" vertex="1" parent="1">
          <mxGeometry x="320" y="360" width="160" height="320" as="geometry" />
        </mxCell>
        <mxCell id="WWOoY5GLKsMl3ht9ghT3-18" value="&lt;ul&gt;&lt;li&gt;Name&lt;/li&gt;&lt;li&gt;Player ID&lt;/li&gt;&lt;li&gt;Height&lt;/li&gt;&lt;li&gt;Weight&lt;/li&gt;&lt;li&gt;Team (NFL)&lt;/li&gt;&lt;li&gt;Projected Points&lt;/li&gt;&lt;li&gt;Actual Points&lt;/li&gt;&lt;li&gt;Draftability&lt;/li&gt;&lt;/ul&gt;" style="text;strokeColor=none;fillColor=none;align=left;verticalAlign=top;spacingLeft=4;spacingRight=4;overflow=hidden;rotatable=0;points=[[0,0.5],[1,0.5]];portConstraint=eastwest;whiteSpace=wrap;html=1;" vertex="1" parent="WWOoY5GLKsMl3ht9ghT3-17">
          <mxGeometry y="26" width="160" height="134" as="geometry" />
        </mxCell>
        <mxCell id="WWOoY5GLKsMl3ht9ghT3-19" value="" style="line;strokeWidth=1;fillColor=none;align=left;verticalAlign=middle;spacingTop=-1;spacingLeft=3;spacingRight=3;rotatable=0;labelPosition=right;points=[];portConstraint=eastwest;strokeColor=inherit;" vertex="1" parent="WWOoY5GLKsMl3ht9ghT3-17">
          <mxGeometry y="160" width="160" height="8" as="geometry" />
        </mxCell>
        <mxCell id="WWOoY5GLKsMl3ht9ghT3-20" value="&lt;ul&gt;&lt;li&gt;Add_Height()&lt;/li&gt;&lt;li&gt;Add_Weight()&lt;/li&gt;&lt;li&gt;Add_Team()&lt;/li&gt;&lt;li&gt;Edit_Team()&lt;/li&gt;&lt;li&gt;Proj_Pts_Week()&lt;/li&gt;&lt;li&gt;Proj_Pts_Tot()&lt;/li&gt;&lt;li&gt;Act_Pts()&lt;/li&gt;&lt;li&gt;Draft_player()&lt;/li&gt;&lt;/ul&gt;" style="text;strokeColor=none;fillColor=none;align=left;verticalAlign=top;spacingLeft=4;spacingRight=4;overflow=hidden;rotatable=0;points=[[0,0.5],[1,0.5]];portConstraint=eastwest;whiteSpace=wrap;html=1;" vertex="1" parent="WWOoY5GLKsMl3ht9ghT3-17">
          <mxGeometry y="168" width="160" height="152" as="geometry" />
        </mxCell>
        <mxCell id="WWOoY5GLKsMl3ht9ghT3-23" value="" style="endArrow=open;endFill=1;endSize=12;html=1;rounded=0;" edge="1" parent="1">
          <mxGeometry width="160" relative="1" as="geometry">
            <mxPoint x="590" y="120" as="sourcePoint" />
            <mxPoint x="490" y="120" as="targetPoint" />
          </mxGeometry>
        </mxCell>
        <mxCell id="WWOoY5GLKsMl3ht9ghT3-24" value="" style="endArrow=open;endFill=1;endSize=12;html=1;rounded=0;entryX=1;entryY=0;entryDx=0;entryDy=0;exitX=0;exitY=0;exitDx=0;exitDy=0;" edge="1" parent="1" source="WWOoY5GLKsMl3ht9ghT3-12" target="WWOoY5GLKsMl3ht9ghT3-1">
          <mxGeometry width="160" relative="1" as="geometry">
            <mxPoint x="510" y="20" as="sourcePoint" />
            <mxPoint x="670" y="20" as="targetPoint" />
            <Array as="points">
              <mxPoint x="400" y="10" />
            </Array>
          </mxGeometry>
        </mxCell>
        <mxCell id="WWOoY5GLKsMl3ht9ghT3-25" value="" style="endArrow=open;endFill=1;endSize=12;html=1;rounded=0;exitX=0;exitY=0;exitDx=0;exitDy=0;" edge="1" parent="1" source="WWOoY5GLKsMl3ht9ghT3-17">
          <mxGeometry width="160" relative="1" as="geometry">
            <mxPoint x="220" y="360" as="sourcePoint" />
            <mxPoint x="200" y="318" as="targetPoint" />
          </mxGeometry>
        </mxCell>
        <mxCell id="WWOoY5GLKsMl3ht9ghT3-26" value="" style="endArrow=open;endFill=1;endSize=12;html=1;rounded=0;exitX=1;exitY=0;exitDx=0;exitDy=0;entryX=0.028;entryY=0.997;entryDx=0;entryDy=0;entryPerimeter=0;" edge="1" parent="1" source="WWOoY5GLKsMl3ht9ghT3-17" target="WWOoY5GLKsMl3ht9ghT3-15">
          <mxGeometry width="160" relative="1" as="geometry">
            <mxPoint x="597" y="402" as="sourcePoint" />
            <mxPoint x="480" y="360" as="targetPoint" />
          </mxGeometry>
        </mxCell>
      </root>
    </mxGraphModel>
  </diagram>
</mxfile>
